<svg width="256" height="256" viewBox="0 0 256 256" fill="none" xmlns="http://www.w3.org/2000/svg">
  <!-- Background -->
  <rect width="256" height="256" rx="20" fill="url(#gradient1)"/>
  
  <!-- Glassmorphism Background Effects -->
  <circle cx="64" cy="64" r="80" fill="white" opacity="0.1" filter="url(#blur1)"/>
  <circle cx="192" cy="192" r="80" fill="white" opacity="0.1" filter="url(#blur1)"/>
  
  <!-- Main Icon Container -->
  <g transform="translate(128, 128)">
    <!-- Outer Circle -->
    <circle cx="0" cy="0" r="90" fill="white" opacity="0.15"/>
    <circle cx="0" cy="0" r="75" fill="white" opacity="0.2"/>
    
    <!-- Webhook Symbol -->
    <g transform="translate(-35, -35)">
      <!-- Left Node -->
      <circle cx="0" cy="35" r="15" fill="white"/>
      <circle cx="0" cy="35" r="12" fill="#667eea"/>
      
      <!-- Top Node -->
      <circle cx="35" cy="0" r="15" fill="white"/>
      <circle cx="35" cy="0" r="12" fill="#667eea"/>
      
      <!-- Right Node -->
      <circle cx="70" cy="35" r="15" fill="white"/>
      <circle cx="70" cy="35" r="12" fill="#34c759"/>
      
      <!-- Bottom Node -->
      <circle cx="35" cy="70" r="15" fill="white"/>
      <circle cx="35" cy="70" r="12" fill="#667eea"/>
      
      <!-- Connecting Lines -->
      <path d="M0 35 L35 0 L70 35 L35 70 Z" fill="none" stroke="white" stroke-width="4" opacity="0.6"/>
      
      <!-- Center Hub -->
      <circle cx="35" cy="35" r="20" fill="white" opacity="0.3"/>
      <circle cx="35" cy="35" r="15" fill="white"/>
      <path d="M35 27 L35 43 M27 35 L43 35" stroke="#667eea" stroke-width="4" stroke-linecap="round"/>
    </g>
    
    <!-- N8N Badge -->
    <g transform="translate(-25, 50)">
      <rect x="0" y="0" width="50" height="20" rx="10" fill="white" opacity="0.9"/>
      <text x="25" y="14" font-family="Arial, sans-serif" font-size="11" font-weight="bold" fill="#667eea" text-anchor="middle">n8n</text>
    </g>
  </g>
  
  <!-- Gradients and Filters -->
  <defs>
    <linearGradient id="gradient1" x1="0%" y1="0%" x2="100%" y2="100%">
      <stop offset="0%" style="stop-color:#667eea;stop-opacity:1" />
      <stop offset="50%" style="stop-color:#764ba2;stop-opacity:1" />
      <stop offset="100%" style="stop-color:#667eea;stop-opacity:1" />
    </linearGradient>
    <filter id="blur1">
      <feGaussianBlur in="SourceGraphic" stdDeviation="20" />
    </filter>
  </defs>
</svg>
